<?xml version="1.0" encoding="utf-8"?>
<!-- Generator: Adobe Illustrator 19.1.0, SVG Export Plug-In . SVG Version: 6.00 Build 0)  -->
<svg version="1.1" id="Layer_1" xmlns="http://www.w3.org/2000/svg" xmlns:xlink="http://www.w3.org/1999/xlink" x="0px" y="0px"
	 viewBox="14 375.9 574.8 43.1" style="enable-background:new 14 375.9 574.8 43.1;" xml:space="preserve">
<style type="text/css">
	.st0{fill:#FFFFFF;}
	.st1{font-family:'EurostileRegular';}
	.st2{font-size:28px;}
</style>
<g>
	<g>
		<path class="st0" d="M14,384.4v14.5l1.7-0.8c0.7-0.4,2.8-1.3,5.8-2.5l0.8-0.3v-5.1l0.3-0.1c0.5-0.2,0.9-0.3,1.3-0.5l0.5-0.2v18.3
			l-0.2,0.2c-0.8,0.3-2.9,1.2-3.6,1.5v9.6l1.8-0.9c4.3-2.1,8.8-3.9,13.3-5.3l0.9-0.3v-8.9c-0.9,0.3-2.9,0.9-3.4,1l-0.5,0.2v-17.7
			L33,387c0.5-0.1,0.9-0.2,1.4-0.3l0.5-0.1v4.9l1.5-0.3c1.9-0.4,3.6-0.8,5.3-1.1l1-0.2v-13.2l-1.4,0.2c-14.4,1.9-26.1,7-26.6,7.2
			L14,384.4z"/>
		<path class="st0" d="M62.9,376.2c-1.7-0.2-3.5-0.3-5.5-0.3c-2.7,0-4.8,0.2-5.4,0.2h-0.5l-7.1,7.3V403l6.8,7.2l0.6-0.1
			c0.3,0,2.5-0.2,5.5-0.2c2,0,3.8,0.1,5.4,0.2l0.6,0.1l7.1-7.2v-6.5l-8.2-0.9v3.7l-2.2,2.2h-0.2c-0.8,0-1.6,0-2.4,0
			c-1.2,0-2.2,0-2.8,0.1h-0.2l-0.1-0.1c-0.4-0.4-1-1.1-1.4-1.5l-0.1-0.1v-13l2.4-2.5h0.2c1.4,0,2.7,0,4,0h0.2l2.6,2.5v3.2l8.2,0.8
			v-7.4l-7-7.3H62.9z"/>
		<g>
			<path class="st0" d="M90.6,380.1l-1.6-0.4v8.9l0.6,0.2c0.5,0.1,1.1,0.3,1.5,0.5l0.3,0.1v15.8l-2,1.9l-4.1-1.4l-0.1-0.2
				c-0.5-0.8-1.5-2.4-1.9-3.1l-0.1-0.1v-15l0.5,0.1c0.7,0.2,1.4,0.3,1.5,0.3l1,0.2V379l-1-0.1c-5.5-1.2-10.1-1.7-11.8-1.9l-1.4-0.2
				v8.6l1,0.1c0.2,0,0.6,0.1,1.2,0.1h0.3v18.8l0.1,0.2l5.1,8.3l0.5,0.1c0.8,0.2,5.1,1.3,9.5,3.4l0.7,0.3l9.1-8.2v-16.2l3.3,1.5v-9.3
				l-0.7-0.3C98.9,382.7,95,381.3,90.6,380.1z"/>
		</g>
	</g>
	<path class="st0" d="M98.5,413.3c0.9,0,1.7,0.7,1.7,1.7s-0.8,1.7-1.7,1.7s-1.7-0.7-1.7-1.7C96.8,414.1,97.6,413.3,98.5,413.3z
		 M98.5,417.1c1.1,0,2-0.9,2-2c0-1.1-0.9-2-2-2s-2,0.9-2,2C96.5,416.2,97.4,417.1,98.5,417.1z M98.8,415.1c0.3,0,0.6-0.2,0.6-0.6
		c0-0.5-0.4-0.6-0.8-0.6h-1v2.3H98v-1.1h0.4l0.6,1.1h0.4L98.8,415.1z M98.6,414.2c0.3,0,0.5,0,0.5,0.3c0,0.3-0.4,0.3-0.7,0.3H98
		v-0.6H98.6z"/>
</g>
<text transform="matrix(1 0 0 1 128.0408 410.3266)" class="st0 st1 st2">FELLOWSHIP OF CHRISTIAN ATHLETES</text>
</svg>
