<?xml version="1.0" encoding="utf-8"?>
<!-- Generator: Adobe Illustrator 19.1.0, SVG Export Plug-In . SVG Version: 6.00 Build 0)  -->
<svg version="1.1" xmlns="http://www.w3.org/2000/svg" xmlns:xlink="http://www.w3.org/1999/xlink" x="0px" y="0px"
	 viewBox="-147 332.1 176.1 111" style="enable-background:new -147 332.1 176.1 111;" xml:space="preserve">
<style type="text/css">
	.st0{display:none;}
	.st1{display:inline;}
	.st2{fill:#FFFFFF;}
	.st3{font-family:'EurostileRegular';}
	.st4{font-size:19px;}
</style>
<g id="Layer_2" class="st0">
	<g id="Layer_3" class="st1">
		<rect x="-182" y="333" width="246.1" height="128"/>
	</g>
</g>
<g id="Layer_1">
	<g>
		<g>
			<path class="st2" d="M-103.4,340.6v14.5l1.7-0.8c0.7-0.4,2.8-1.3,5.8-2.5l0.8-0.3v-5.1l0.3-0.1c0.5-0.2,0.9-0.3,1.3-0.5l0.5-0.2
				v18.3l-0.2,0.2c-0.8,0.3-2.9,1.2-3.6,1.5v9.6l1.8-0.9c4.3-2.1,8.8-3.9,13.3-5.3l0.9-0.3v-8.9c-0.9,0.3-2.9,0.9-3.4,1l-0.5,0.2
				v-17.7l0.3-0.1c0.5-0.1,0.9-0.2,1.4-0.3l0.5-0.1v4.9l1.5-0.3c1.9-0.4,3.6-0.8,5.3-1.1l1-0.2v-13.2l-1.4,0.2
				c-14.4,1.9-26.1,7-26.6,7.2L-103.4,340.6z"/>
			<path class="st2" d="M-54.5,332.4c-1.7-0.2-3.5-0.3-5.5-0.3c-2.7,0-4.8,0.2-5.4,0.2h-0.5l-7.1,7.3v19.6l6.8,7.2l0.6-0.1
				c0.3,0,2.5-0.2,5.5-0.2c2,0,3.8,0.1,5.4,0.2l0.6,0.1l7.1-7.2v-6.5l-8.2-0.9v3.7l-2.1,2.1h-0.2c-0.8,0-1.6,0-2.4,0
				c-1.2,0-2.2,0-2.8,0.1h-0.2l-0.1-0.1c-0.4-0.4-1-1.1-1.4-1.5l-0.1-0.1v-12.9l2.4-2.5h0.2c1.4,0,2.7,0,4,0h0.2l2.6,2.5v3.2
				l8.2,0.8v-7.4l-7-7.3H-54.5z"/>
			<g>
				<path class="st2" d="M-26.8,336.3l-1.6-0.4v8.9l0.6,0.2c0.5,0.1,1.1,0.3,1.5,0.5l0.3,0.1v15.8l-2,1.9l-4.1-1.4l-0.1-0.2
					c-0.5-0.8-1.5-2.4-1.9-3.1l-0.1-0.1v-15l0.5,0.1c0.7,0.2,1.4,0.3,1.5,0.3l1,0.2v-8.9l-1-0.1c-5.5-1.2-10.1-1.7-11.8-1.9
					l-1.4-0.2v8.6l1.1,0.1c0.2,0,0.6,0.1,1.2,0.1h0.3v18.8l0.1,0.2l5.1,8.3l0.5,0.1c0.8,0.2,5.1,1.3,9.5,3.4l0.7,0.3l9.1-8.2v-16.2
					l3.3,1.5v-9.3l-0.7-0.3C-18.5,338.9-22.4,337.5-26.8,336.3z"/>
			</g>
		</g>
		<path class="st2" d="M-18.9,369.5c0.9,0,1.7,0.7,1.7,1.7s-0.8,1.7-1.7,1.7s-1.7-0.7-1.7-1.7C-20.6,370.3-19.8,369.5-18.9,369.5z
			 M-18.9,373.3c1.1,0,2-0.9,2-2c0-1.1-0.9-2-2-2s-2,0.9-2,2C-20.9,372.4-20,373.3-18.9,373.3z M-18.6,371.3c0.3,0,0.6-0.2,0.6-0.6
			c0-0.5-0.4-0.6-0.8-0.6h-1v2.3h0.3v-1.1h0.4l0.6,1.1h0.4L-18.6,371.3z M-18.8,370.4c0.3,0,0.5,0,0.5,0.3c0,0.3-0.4,0.3-0.7,0.3
			h-0.4v-0.6H-18.8z"/>
	</g>
	<text transform="matrix(1 0 0 1 -117.8284 406.6752)" class="st2 st3 st4">FELLOWSHIP OF </text>
	<text transform="matrix(1 0 0 1 -146.9876 438.3695)" class="st2 st3 st4">CHRISTIAN ATHLETES</text>
</g>
</svg>
