<?xml version="1.0" encoding="utf-8"?>
<!-- Generator: Adobe Illustrator 19.1.0, SVG Export Plug-In . SVG Version: 6.00 Build 0)  -->
<svg version="1.1" id="Layer_1" xmlns="http://www.w3.org/2000/svg" xmlns:xlink="http://www.w3.org/1999/xlink" x="0px" y="0px"
	 viewBox="0 0 666.1 43.1" style="enable-background:new 0 0 666.1 43.1;" xml:space="preserve">
<style type="text/css">
	.st0{fill:#FFFFFF;}
	.st1{font-family:'EurostileBold';}
	.st2{font-size:32px;}
</style>
<g>
	<g>
		<path class="st0" d="M0,8.5V23l1.7-0.8c0.7-0.4,2.8-1.3,5.8-2.5l0.8-0.3v-5.1l0.3-0.1c0.5-0.2,0.9-0.3,1.3-0.5l0.5-0.2v18.3
			L10.2,32c-0.8,0.3-2.9,1.2-3.6,1.5v9.6l1.8-0.9c4.3-2.1,8.8-3.9,13.3-5.3l0.9-0.3v-8.9c-0.9,0.3-2.9,0.9-3.4,1l-0.5,0.2V11.2
			l0.3-0.1c0.5-0.1,0.9-0.2,1.4-0.3l0.5-0.1v4.9l1.5-0.3c1.9-0.4,3.6-0.8,5.3-1.1l1-0.2V0.8l-1.4,0.2C12.9,2.9,1.2,8,0.7,8.2L0,8.5z
			"/>
		<path class="st0" d="M48.9,0.3C47.2,0.1,45.4,0,43.4,0c-2.7,0-4.8,0.2-5.4,0.2l-0.5,0l-7.1,7.3v19.6l6.8,7.2l0.6-0.1
			c0.3,0,2.5-0.2,5.5-0.2c2,0,3.8,0.1,5.4,0.2l0.6,0.1l7.1-7.2v-6.5l-8.2-0.9v3.7L46,25.6l-0.2,0c-0.8,0-1.6,0-2.4,0
			c-1.2,0-2.2,0-2.8,0.1l-0.2,0l-0.1-0.1c-0.4-0.4-1-1.1-1.4-1.5l-0.1-0.1V11l2.4-2.5l0.2,0c1.4,0,2.7,0,4,0l0.2,0l2.6,2.5v3.2
			l8.2,0.8V7.6l-7-7.3L48.9,0.3z"/>
		<g>
			<path class="st0" d="M76.6,4.2L75,3.8v8.9l0.6,0.2c0.5,0.1,1.1,0.3,1.5,0.5l0.3,0.1v15.8l-2,1.9l-4.1-1.4l-0.1-0.2
				c-0.5-0.8-1.5-2.4-1.9-3.1l-0.1-0.1v-15l0.5,0.1c0.7,0.2,1.4,0.3,1.5,0.3l1,0.2V3.1L71.2,3c-5.5-1.2-10.1-1.7-11.8-1.9L58,0.9
				v8.6L59,9.6c0.2,0,0.6,0.1,1.2,0.1l0.3,0v18.8l0.1,0.2l5.1,8.3l0.5,0.1c0.8,0.2,5.1,1.3,9.5,3.4l0.7,0.3l9.1-8.2V16.4l3.3,1.5
				V8.6l-0.7-0.3C84.9,6.8,81,5.4,76.6,4.2z"/>
		</g>
	</g>
	<path class="st0" d="M84.5,37.4c0.9,0,1.7,0.7,1.7,1.7c0,1-0.8,1.7-1.7,1.7c-0.9,0-1.7-0.7-1.7-1.7C82.8,38.2,83.6,37.4,84.5,37.4z
		 M84.5,41.2c1.1,0,2-0.9,2-2c0-1.1-0.9-2-2-2c-1.1,0-2,0.9-2,2C82.5,40.3,83.4,41.2,84.5,41.2z M84.8,39.2c0.3,0,0.6-0.2,0.6-0.6
		c0-0.5-0.4-0.6-0.8-0.6h-1v2.3H84v-1.1h0.4l0.6,1.1h0.4L84.8,39.2z M84.6,38.3c0.3,0,0.5,0,0.5,0.3c0,0.3-0.4,0.3-0.7,0.3H84v-0.6
		H84.6z"/>
</g>
<text transform="matrix(1 0 0 1 114.0408 34.4266)" class="st0 st1 st2">FELLOWSHIP OF CHRISTIAN ATHLETES</text>
</svg>
