<?xml version="1.0" encoding="utf-8"?>
<!-- Generator: Adobe Illustrator 19.1.0, SVG Export Plug-In . SVG Version: 6.00 Build 0)  -->
<svg version="1.1" id="Layer_1" xmlns="http://www.w3.org/2000/svg" xmlns:xlink="http://www.w3.org/1999/xlink" x="0px" y="0px"
	 viewBox="-259.5 374.4 48.3 23.4" style="enable-background:new -259.5 374.4 48.3 23.4;" xml:space="preserve">
<style type="text/css">
	.st0{fill:#FFFFFF;}
</style>
<g>
	<g>
		<path class="st0" d="M-259.5,379v7.9l0.9-0.4c0.4-0.2,1.5-0.7,3.2-1.4l0.4-0.2v-2.8l0.2-0.1c0.3-0.1,0.5-0.2,0.7-0.3l0.3-0.1v9.9
			l-0.1,0.1c-0.4,0.2-1.6,0.7-2,0.8v5.2l1-0.5c2.3-1.1,4.8-2.1,7.2-2.9l0.5-0.2v-4.8c-0.5,0.2-1.6,0.5-1.8,0.5l-0.3,0.1v-9.6
			l0.2-0.1c0.3-0.1,0.5-0.1,0.8-0.2l0.3-0.1v2.7l0.8-0.2c1-0.2,2-0.4,2.9-0.6l0.5-0.1v-7.2l-0.8,0.1c-7.9,1-14.2,3.8-14.5,3.9
			L-259.5,379z"/>
		<path class="st0" d="M-232.9,374.6c-0.9-0.1-1.9-0.2-3-0.2c-1.5,0-2.6,0.1-2.9,0.1h-0.3l-3.9,4v10.6l3.7,3.9l0.3-0.1
			c0.2,0,1.4-0.1,3-0.1c1.1,0,2.1,0.1,2.9,0.1l0.3,0.1l3.9-3.9v-3.5l-4.5-0.5v2l-1.1,1.1h-0.1c-0.4,0-0.9,0-1.3,0
			c-0.7,0-1.2,0-1.5,0.1h-0.1l-0.1-0.1c-0.2-0.2-0.5-0.6-0.8-0.8l-0.1-0.1v-7l1.3-1.4h0.1c0.8,0,1.5,0,2.2,0h0.1l1.4,1.4v1.7
			l4.5,0.4v-4l-3.8-4H-232.9z"/>
		<g>
			<path class="st0" d="M-217.9,376.7l-0.9-0.2v4.8l0.3,0.1c0.3,0.1,0.6,0.2,0.8,0.3l0.2,0.1v8.6l-1.1,1l-2.2-0.8l-0.1-0.1
				c-0.3-0.4-0.8-1.3-1-1.7l-0.1-0.1v-8.1l0.3,0.1c0.4,0.1,0.8,0.2,0.8,0.2l0.5,0.1v-4.8l-0.5-0.1c-3-0.7-5.5-0.9-6.4-1l-0.8-0.1
				v4.7l0.6,0.1c0.1,0,0.3,0.1,0.7,0.1h0.2v10.2l0.1,0.1l2.8,4.5l0.3,0.1c0.4,0.1,2.8,0.7,5.2,1.8l0.4,0.2l4.9-4.5v-8.8l1.8,0.8
				v-5.1l-0.4-0.2C-213.3,378.1-215.4,377.3-217.9,376.7z"/>
		</g>
	</g>
	<path class="st0" d="M-213.6,394.7c0.5,0,0.9,0.4,0.9,0.9s-0.4,0.9-0.9,0.9c-0.5,0-0.9-0.4-0.9-0.9
		C-214.5,395.2-214.1,394.7-213.6,394.7z M-213.6,396.8c0.6,0,1.1-0.5,1.1-1.1s-0.5-1.1-1.1-1.1c-0.6,0-1.1,0.5-1.1,1.1
		S-214.2,396.8-213.6,396.8z M-213.4,395.7c0.2,0,0.3-0.1,0.3-0.3c0-0.3-0.2-0.3-0.4-0.3h-0.5v1.2h0.2v-0.6h0.3l0.3,0.6h0.2
		L-213.4,395.7z M-213.5,395.2c0.2,0,0.3,0,0.3,0.2s-0.2,0.2-0.4,0.2h-0.2v-0.3H-213.5z"/>
</g>
</svg>
