<?xml version="1.0" encoding="utf-8"?>
<!-- Generator: Adobe Illustrator 19.1.0, SVG Export Plug-In . SVG Version: 6.00 Build 0)  -->
<svg version="1.1" id="Layer_1" xmlns="http://www.w3.org/2000/svg" xmlns:xlink="http://www.w3.org/1999/xlink" x="0px" y="0px"
	 viewBox="5292 -62 11196 917" style="enable-background:new 5292 -62 11196 917;" xml:space="preserve">
<style type="text/css">
	.st0{fill:#FFFFFF;}
	.st1{font-family:'EurostileRegular';}
	.st2{font-size:606.0793px;}
</style>
<g>
	<g>
		<path class="st0" d="M5292,192.3v274.6l32.1-15c12.8-7.5,53.4-24.6,110.1-47l15-5.3v-96.2l5.3-2.1c9.6-4.3,17.1-5.3,24.6-9.6
			l9.6-4.3v346.2l-4.3,4.3c-15,5.3-54.5,22.5-68.4,28.9v181.7l34.2-17.1c81.2-39.6,166.7-73.7,252.2-100.5l17.1-5.3v-170
			c-17.1,5.3-54.5,17.1-64.1,19.3l-9.6,4.3V243.5l5.3-2.1c9.6-2.1,17.1-4.3,26.7-5.3l9.6-2.1v93l28.9-5.3
			c36.4-7.5,68.4-15,100.5-20.3l19.3-4.3V45.8l-26.7,4.3c-272.5,36.4-494.7,132.5-504.3,136.7L5292,192.3z"/>
		<path class="st0" d="M6218.4,36.3c-32.1-4.3-66.2-5.3-103.7-5.3c-51.3,0-90.8,4.3-102.6,4.3h-9.6L5867.9,173v370.7l129.2,136.7
			l11.8-2.1c5.3,0,47-4.3,103.7-4.3c37.4,0,71.6,2.1,102.6,4.3l11.8,2.1l133.5-136.7V420.9l-154.9-17.1v70.5l-41.6,41.6h-4.3
			c-15,0-30,0-45.9,0c-22.5,0-41.6,0-53.4,2.1h-4.3l-2.1-2.1c-7.5-7.5-19.3-20.3-26.7-28.9l-2.1-2.1V239.2l45.9-47h4.3
			c26.7,0,51.3,0,75.9,0h4.3l49.1,47V300l154.9,15V175.1L6228,36.2L6218.4,36.3L6218.4,36.3z"/>
		<g>
			<path class="st0" d="M6743,110l-30-7.5v168.8l11.8,4.3c9.6,2.1,20.3,5.3,28.9,9.6l5.3,2.1v299.1l-37.4,36.4l-78-26.7l-2.1-4.3
				c-9.6-15-28.9-45.9-36.4-58.7l-2.1-2.1V246.7l9.6,2.1c12.8,4.3,26.7,5.3,28.9,5.3l19.3,4.3V89.7l-19.3-2.1
				c-103.7-22.5-191.3-32.1-223.3-36.4l-26.7-4.3v163.5l19.3,2.1c4.3,0,11.8,2.1,22.5,2.1h5.3v355.8l2.1,4.3l96.2,157.1l9.6,2.1
				c15,4.3,96.2,24.6,179.5,64.1l12.8,5.3l172-154.9V341.9l62,28.9V193.3l-12.8-5.3C6900.1,160.2,6826.3,133.5,6743,110z"/>
		</g>
	</g>
	<path class="st0" d="M6892.6,739.3c17.1,0,32.1,12.8,32.1,32.1c0,19.3-15,32.1-32.1,32.1s-32.1-12.8-32.1-32.1
		C6860.6,754.3,6875.5,739.3,6892.6,739.3z M6892.6,810.9c20.3,0,37.4-17.1,37.4-37.4c0-20.3-17.1-37.4-37.4-37.4
		c-20.3,0-37.4,17.1-37.4,37.4C6855.2,793.8,6871.2,810.9,6892.6,810.9z M6898,773.5c5.3,0,11.8-4.3,11.8-11.8
		c0-9.6-7.5-11.8-15-11.8h-19.3v43.8h7.5v-20.3h7.5l11.8,20.3h7.5L6898,773.5z M6894.8,756.4c5.3,0,9.6,0,9.6,5.3
		c0,5.3-7.5,5.3-12.8,5.3h-7.5v-11.8h10.7L6894.8,756.4L6894.8,756.4z"/>
</g>
<text transform="matrix(1 0 0 1 7451.957 616.5039)" class="st0 st1 st2">Fellowship of Christian Athletes</text>
</svg>
